<svg width="110" height="25" viewBox="0 0 110 25" fill="none" xmlns="http://www.w3.org/2000/svg">
<path d="M14.1954 5.27823C13.9851 5.04881 13.6587 4.95028 13.3496 5.02418L10.0926 5.80422C10.0457 5.81533 10.0043 5.84141 9.97455 5.87764L9.97051 5.88295C9.88175 5.99114 9.92411 6.15295 10.0578 6.20463C10.5732 6.40411 11.1224 6.49829 11.6338 6.72916C15.7447 8.58339 15.8975 14.2258 13.4474 17.4541C13.3244 17.6164 13.0571 17.5309 13.0551 17.3305C13.0369 15.5912 12.705 13.9427 11.8507 12.3701C10.2615 9.44603 6.29942 6.41618 2.822 8.42497C-0.788064 10.5101 0.376456 15.3483 2.50527 18.0598C3.20732 18.9539 5.28721 20.8892 6.45476 20.9955C7.67728 21.1071 8.8877 19.12 9.1666 18.1439C9.2604 17.8159 9.49089 17.1793 9.01933 17.1711C8.95225 17.1701 8.88972 17.2049 8.84937 17.2556C6.82596 19.7948 3.32937 16.2568 2.64246 14.1891C2.22436 12.9309 2.12853 10.9752 3.47462 10.2005C6.19049 8.63701 8.51902 12.7101 9.41322 14.6074C10.2524 16.3867 10.8072 18.2883 11.3025 20.1802L11.2833 20.1855C11.2954 20.215 11.306 20.2454 11.3141 20.2763C11.3267 20.2985 11.3368 20.3222 11.3469 20.3459C11.3933 20.3681 11.4351 20.3946 11.4734 20.4251C11.4966 20.4265 11.5203 20.428 11.542 20.4299C14.3109 20.6762 15.8884 16.9127 16.2738 14.789C16.8321 11.7118 16.4356 7.72269 14.1959 5.2792L14.1954 5.27823Z" fill="#352442"/>
<path d="M34.3923 15.696H34.4463L38.2803 5.256H40.2063L35.2023 18H33.5463L28.5783 5.256H30.5583L34.3923 15.696ZM47.1112 12.978C47.0992 12.642 47.0392 12.33 46.9312 12.042C46.8352 11.742 46.6852 11.484 46.4812 11.268C46.2892 11.052 46.0432 10.884 45.7432 10.764C45.4552 10.632 45.1132 10.566 44.7172 10.566C44.3572 10.566 44.0152 10.632 43.6912 10.764C43.3792 10.884 43.1032 11.052 42.8632 11.268C42.6352 11.484 42.4432 11.742 42.2872 12.042C42.1432 12.33 42.0592 12.642 42.0352 12.978H47.1112ZM48.8212 13.662C48.8212 13.758 48.8212 13.854 48.8212 13.95C48.8212 14.046 48.8152 14.142 48.8032 14.238H42.0352C42.0472 14.598 42.1252 14.94 42.2692 15.264C42.4252 15.576 42.6292 15.852 42.8812 16.092C43.1332 16.32 43.4212 16.5 43.7452 16.632C44.0812 16.764 44.4352 16.83 44.8072 16.83C45.3832 16.83 45.8812 16.704 46.3012 16.452C46.7212 16.2 47.0512 15.894 47.2912 15.534L48.4792 16.488C48.0232 17.088 47.4832 17.532 46.8592 17.82C46.2472 18.096 45.5632 18.234 44.8072 18.234C44.1592 18.234 43.5592 18.126 43.0072 17.91C42.4552 17.694 41.9812 17.394 41.5852 17.01C41.1892 16.614 40.8772 16.14 40.6492 15.588C40.4212 15.036 40.3072 14.424 40.3072 13.752C40.3072 13.092 40.4152 12.486 40.6312 11.934C40.8592 11.37 41.1712 10.89 41.5672 10.494C41.9632 10.098 42.4312 9.792 42.9712 9.576C43.5112 9.348 44.0932 9.234 44.7172 9.234C45.3412 9.234 45.9052 9.336 46.4092 9.54C46.9252 9.744 47.3572 10.038 47.7052 10.422C48.0652 10.806 48.3412 11.274 48.5332 11.826C48.7252 12.366 48.8212 12.978 48.8212 13.662ZM55.3596 10.854H53.0916V15.3C53.0916 15.816 53.1876 16.188 53.3796 16.416C53.5716 16.632 53.8776 16.74 54.2976 16.74C54.4536 16.74 54.6216 16.722 54.8016 16.686C54.9816 16.65 55.1436 16.596 55.2876 16.524L55.3416 17.91C55.1376 17.982 54.9096 18.036 54.6576 18.072C54.4176 18.12 54.1656 18.144 53.9016 18.144C53.0976 18.144 52.4796 17.922 52.0476 17.478C51.6276 17.034 51.4176 16.368 51.4176 15.48V10.854H49.7796V9.468H51.4176V7.02H53.0916V9.468H55.3596V10.854ZM61.0197 10.854H58.7517V15.3C58.7517 15.816 58.8477 16.188 59.0397 16.416C59.2317 16.632 59.5377 16.74 59.9577 16.74C60.1137 16.74 60.2817 16.722 60.4617 16.686C60.6417 16.65 60.8037 16.596 60.9477 16.524L61.0017 17.91C60.7977 17.982 60.5697 18.036 60.3177 18.072C60.0777 18.12 59.8257 18.144 59.5617 18.144C58.7577 18.144 58.1397 17.922 57.7077 17.478C57.2877 17.034 57.0777 16.368 57.0777 15.48V10.854H55.4397V9.468H57.0777V7.02H58.7517V9.468H61.0197V10.854ZM68.0776 12.474C68.0776 11.838 67.8856 11.37 67.5016 11.07C67.1176 10.758 66.6076 10.602 65.9716 10.602C65.4916 10.602 65.0356 10.698 64.6036 10.89C64.1836 11.07 63.8296 11.304 63.5416 11.592L62.6416 10.512C63.0616 10.116 63.5716 9.804 64.1716 9.576C64.7836 9.348 65.4376 9.234 66.1336 9.234C66.7456 9.234 67.2736 9.324 67.7176 9.504C68.1736 9.672 68.5456 9.906 68.8336 10.206C69.1216 10.506 69.3376 10.86 69.4816 11.268C69.6256 11.676 69.6976 12.114 69.6976 12.582V16.308C69.6976 16.596 69.7036 16.902 69.7156 17.226C69.7396 17.538 69.7756 17.796 69.8236 18H68.2936C68.1976 17.592 68.1496 17.184 68.1496 16.776H68.0956C67.7836 17.232 67.3876 17.586 66.9076 17.838C66.4396 18.09 65.8816 18.216 65.2336 18.216C64.8976 18.216 64.5436 18.168 64.1716 18.072C63.8116 17.988 63.4816 17.844 63.1816 17.64C62.8816 17.436 62.6296 17.166 62.4256 16.83C62.2336 16.494 62.1376 16.08 62.1376 15.588C62.1376 14.94 62.3116 14.43 62.6596 14.058C63.0076 13.674 63.4636 13.386 64.0276 13.194C64.5916 12.99 65.2276 12.858 65.9356 12.798C66.6436 12.738 67.3576 12.708 68.0776 12.708V12.474ZM67.6636 13.932C67.2436 13.932 66.8056 13.95 66.3496 13.986C65.9056 14.022 65.4976 14.094 65.1256 14.202C64.7656 14.31 64.4656 14.472 64.2256 14.688C63.9856 14.904 63.8656 15.192 63.8656 15.552C63.8656 15.804 63.9136 16.014 64.0096 16.182C64.1176 16.35 64.2556 16.488 64.4236 16.596C64.5916 16.704 64.7776 16.782 64.9816 16.83C65.1856 16.866 65.3956 16.884 65.6116 16.884C66.4036 16.884 67.0096 16.65 67.4296 16.182C67.8616 15.702 68.0776 15.102 68.0776 14.382V13.932H67.6636ZM74.1794 10.872C74.3954 10.416 74.7374 10.032 75.2054 9.72C75.6854 9.396 76.2494 9.234 76.8974 9.234C77.4734 9.234 77.9894 9.366 78.4454 9.63C78.9134 9.894 79.2794 10.332 79.5434 10.944C79.8314 10.392 80.2334 9.972 80.7494 9.684C81.2654 9.384 81.8294 9.234 82.4414 9.234C82.9934 9.234 83.4674 9.33 83.8634 9.522C84.2594 9.702 84.5894 9.948 84.8534 10.26C85.1174 10.572 85.3094 10.938 85.4294 11.358C85.5614 11.778 85.6274 12.228 85.6274 12.708V18H83.9354V13.266C83.9354 12.918 83.9054 12.588 83.8454 12.276C83.7854 11.964 83.6834 11.688 83.5394 11.448C83.3954 11.208 83.2034 11.016 82.9634 10.872C82.7234 10.728 82.4174 10.656 82.0454 10.656C81.6614 10.656 81.3314 10.74 81.0554 10.908C80.7794 11.064 80.5514 11.274 80.3714 11.538C80.2034 11.79 80.0774 12.078 79.9934 12.402C79.9214 12.726 79.8854 13.056 79.8854 13.392V18H78.1934V12.924C78.1934 12.588 78.1634 12.282 78.1034 12.006C78.0434 11.73 77.9414 11.496 77.7974 11.304C77.6534 11.1 77.4674 10.944 77.2394 10.836C77.0114 10.716 76.7294 10.656 76.3934 10.656C75.7694 10.656 75.2474 10.914 74.8274 11.43C74.4194 11.934 74.2154 12.612 74.2154 13.464V18H72.5234V11.304C72.5234 11.076 72.5174 10.782 72.5054 10.422C72.4934 10.062 72.4754 9.744 72.4514 9.468H74.0534C74.0774 9.684 74.0954 9.93 74.1074 10.206C74.1194 10.47 74.1254 10.692 74.1254 10.872H74.1794ZM90.5724 16.92C90.5724 17.232 90.4584 17.508 90.2304 17.748C90.0024 17.988 89.7144 18.108 89.3664 18.108C89.0304 18.108 88.7424 17.994 88.5024 17.766C88.2744 17.526 88.1604 17.25 88.1604 16.938C88.1604 16.614 88.2744 16.338 88.5024 16.11C88.7304 15.87 89.0184 15.75 89.3664 15.75C89.7144 15.75 90.0024 15.864 90.2304 16.092C90.4584 16.32 90.5724 16.596 90.5724 16.92ZM93.7721 18H91.7921L97.3181 5.256H98.9381L104.41 18H102.394L101.098 14.868H95.0501L93.7721 18ZM95.6801 13.302H100.45L98.0741 7.326L95.6801 13.302ZM107.829 18H106.047V5.256H107.829V18Z" fill="#352442"/>
</svg>
